<svg width="124" height="124" viewBox="0 0 124 124" fill="none" xmlns="http://www.w3.org/2000/svg">
<path d="M12.1062 32.7729C12.1062 38.2541 9.92887 43.5107 6.05312 47.3865C-2.01771 55.4573 -2.01771 68.5427 6.05312 76.6135C9.92887 80.4893 12.1062 85.7459 12.1062 91.2271C12.1062 102.641 21.359 111.894 32.7729 111.894C38.2541 111.894 43.5107 114.071 47.3865 117.947C55.4573 126.018 68.5427 126.018 76.6136 117.947C80.4893 114.071 85.7459 111.894 91.2271 111.894C102.641 111.894 111.894 102.641 111.894 91.2271C111.894 85.746 114.071 80.4893 117.947 76.6136C126.018 68.5427 126.018 55.4573 117.947 47.3864C114.071 43.5107 111.894 38.254 111.894 32.7729C111.894 21.359 102.641 12.1063 91.2271 12.1063C85.7459 12.1063 80.4893 9.92888 76.6135 6.05313C68.5427 -2.01771 55.4573 -2.01771 47.3865 6.05313C43.5107 9.92888 38.2541 12.1063 32.7729 12.1063C21.359 12.1063 12.1062 21.359 12.1062 32.7729Z" fill="#232323"/>
</svg>
